# xmcd
#
# Track frame offsets: 
#        150
#        42491
#        63032
#        108884
#
# Disc length: 2351 seconds
#
# Revision: 1
# Processed by: cddbd v1.5.2PL0 Copyright (c) Steve Scherf et al.
# Submitted via: ExactAudioCopy v0.99pb5
#
DISCID=2a092d04
DTITLE=David S Ware - Live in the Netherlands
DYEAR=2001
DGENRE=Free-Jazz
TTITLE0=4th Dimensional
TTITLE1=5th Dimensional
TTITLE2=6th Dimensional
TTITLE3=7th Dimensional
EXTD=
EXTT0=
EXTT1=
EXTT2=
EXTT3=
PLAYORDER=
